# Blender 4.0.2
# www.blender.org
mtllib muswallobj1.mtl
o Cylinder
v 0.000000 -0.203042 -1.000000
v 0.000000 0.326420 -1.000000
v 0.195090 -0.203042 -0.980785
v 0.195090 0.326420 -0.980785
v 0.382683 -0.203042 -0.923880
v 0.382683 0.326420 -0.923880
v 0.555570 -0.203042 -0.831470
v 0.555570 0.326420 -0.831470
v 0.707107 -0.203042 -0.707107
v 0.707107 0.326420 -0.707107
v 0.831470 -0.203042 -0.555570
v 0.831470 0.326420 -0.555570
v 0.923880 -0.203042 -0.382683
v 0.923880 0.326420 -0.382683
v 0.980785 -0.203042 -0.195090
v 0.980785 0.326420 -0.195090
v 1.000000 -0.203042 0.000000
v 1.000000 0.326420 0.000000
v 0.980785 -0.203042 0.195090
v 0.980785 0.326420 0.195090
v 0.923880 -0.203042 0.382683
v 0.923880 0.326420 0.382683
v 0.831470 -0.203042 0.555570
v 0.831470 0.326420 0.555570
v 0.707107 -0.203042 0.707107
v 0.707107 0.326420 0.707107
v 0.555570 -0.203042 0.831470
v 0.555570 0.326420 0.831470
v 0.382683 -0.203042 0.923880
v 0.382683 0.326420 0.923880
v 0.195090 -0.203042 0.980785
v 0.195090 0.326420 0.980785
v 0.000000 -0.203042 1.000000
v 0.000000 0.326420 1.000000
v -0.195090 -0.203042 0.980785
v -0.195090 0.326420 0.980785
v -0.382683 -0.203042 0.923880
v -0.382683 0.326420 0.923880
v -0.555570 -0.203042 0.831470
v -0.555570 0.326420 0.831470
v -0.707107 -0.203042 0.707107
v -0.707107 0.326420 0.707107
v -0.831470 -0.203042 0.555570
v -0.831470 0.326420 0.555570
v -0.923880 -0.203042 0.382683
v -0.923880 0.326420 0.382683
v -0.980785 -0.203042 0.195090
v -0.980785 0.326420 0.195090
v -1.000000 -0.203042 0.000000
v -1.000000 0.326420 0.000000
v -0.980785 -0.203042 -0.195090
v -0.980785 0.326420 -0.195090
v -0.923880 -0.203042 -0.382683
v -0.923880 0.326420 -0.382683
v -0.831470 -0.203042 -0.555570
v -0.831470 0.326420 -0.555570
v -0.707107 -0.203042 -0.707107
v -0.707107 0.326420 -0.707107
v -0.555570 -0.203042 -0.831470
v -0.555570 0.326420 -0.831470
v -0.382683 -0.203042 -0.923880
v -0.382683 0.326420 -0.923880
v -0.195090 -0.203042 -0.980785
v -0.195090 0.326420 -0.980785
v 0.000000 0.496439 -0.682841
v 0.133216 0.496439 -0.669720
v 0.261312 0.496439 -0.630862
v 0.379366 0.496439 -0.567761
v 0.482841 0.496439 -0.482841
v 0.567761 0.496439 -0.379366
v 0.630862 0.496439 -0.261312
v 0.669720 0.496439 -0.133216
v 0.682841 0.496439 -0.000000
v 0.669720 0.496439 0.133216
v 0.630862 0.496439 0.261312
v 0.567761 0.496439 0.379366
v 0.482841 0.496439 0.482841
v 0.379366 0.496439 0.567761
v 0.261312 0.496439 0.630862
v 0.133216 0.496439 0.669720
v 0.000000 0.496439 0.682841
v -0.133216 0.496439 0.669720
v -0.261312 0.496439 0.630862
v -0.379366 0.496439 0.567761
v -0.482841 0.496439 0.482841
v -0.567761 0.496439 0.379366
v -0.630862 0.496439 0.261312
v -0.669720 0.496439 0.133216
v -0.682841 0.496439 -0.000000
v -0.669720 0.496439 -0.133216
v -0.630862 0.496439 -0.261312
v -0.567761 0.496439 -0.379366
v -0.482841 0.496439 -0.482841
v -0.379366 0.496439 -0.567761
v -0.261312 0.496439 -0.630862
v -0.133216 0.496439 -0.669720
v 0.209287 -0.242494 -1.052157
v -0.000000 -0.242494 -1.072770
v -0.000000 0.325498 -1.072770
v 0.209287 0.325498 -1.052157
v 0.410532 -0.242494 -0.991111
v 0.410532 0.325498 -0.991111
v 0.595999 -0.242494 -0.891976
v 0.595999 0.325498 -0.891976
v 0.758563 -0.242494 -0.758563
v 0.758563 0.325498 -0.758563
v 0.891976 -0.242494 -0.595999
v 0.891976 0.325498 -0.595999
v 0.991111 -0.242494 -0.410532
v 0.991111 0.325498 -0.410532
v 1.052157 -0.242494 -0.209287
v 1.052157 0.325498 -0.209287
v 1.072770 -0.242494 0.000000
v 1.072770 0.325498 0.000000
v 1.052157 -0.242494 0.209287
v 1.052157 0.325498 0.209287
v 0.991111 -0.242494 0.410532
v 0.991111 0.325498 0.410532
v 0.891976 -0.242494 0.595999
v 0.891976 0.325498 0.595999
v 0.758563 -0.242494 0.758563
v 0.758563 0.325498 0.758563
v 0.595999 -0.242494 0.891976
v 0.595999 0.325498 0.891976
v 0.410532 -0.242494 0.991111
v 0.410532 0.325498 0.991111
v 0.209287 -0.242494 1.052157
v 0.209287 0.325498 1.052157
v -0.000000 -0.242494 1.072770
v -0.000000 0.325498 1.072770
v -0.209287 -0.242494 1.052157
v -0.209287 0.325498 1.052157
v -0.410532 -0.242494 0.991111
v -0.410532 0.325498 0.991111
v -0.595999 -0.242494 0.891976
v -0.595999 0.325498 0.891976
v -0.758563 -0.242494 0.758563
v -0.758563 0.325498 0.758563
v -0.891976 -0.242494 0.595999
v -0.891976 0.325498 0.595999
v -0.991111 -0.242494 0.410532
v -0.991111 0.325498 0.410532
v -1.052157 -0.242494 0.209287
v -1.052157 0.325498 0.209287
v -1.072770 -0.242494 0.000000
v -1.072770 0.325498 0.000000
v -1.052157 -0.242494 -0.209287
v -1.052157 0.325498 -0.209287
v -0.991111 -0.242494 -0.410532
v -0.991111 0.325498 -0.410532
v -0.891976 -0.242494 -0.595999
v -0.891976 0.325498 -0.595999
v -0.758563 -0.242494 -0.758563
v -0.758563 0.325498 -0.758563
v -0.595999 -0.242494 -0.891976
v -0.595999 0.325498 -0.891976
v -0.410532 -0.242494 -0.991111
v -0.410532 0.325498 -0.991111
v -0.209287 -0.242494 -1.052157
v -0.209287 0.325498 -1.052157
v 0.000000 0.507889 -0.732531
v 0.142910 0.507889 -0.718456
v 0.280328 0.507889 -0.676771
v 0.406973 0.507889 -0.609077
v 0.517978 0.507889 -0.517978
v 0.609077 0.507889 -0.406973
v 0.676771 0.507889 -0.280328
v 0.718456 0.507889 -0.142910
v 0.732531 0.507889 -0.000000
v 0.718456 0.507889 0.142910
v 0.676771 0.507889 0.280328
v 0.609077 0.507889 0.406973
v 0.517978 0.507889 0.517978
v 0.406973 0.507889 0.609077
v 0.280328 0.507889 0.676771
v 0.142910 0.507889 0.718456
v 0.000000 0.507889 0.732531
v -0.142910 0.507889 0.718456
v -0.280328 0.507889 0.676771
v -0.406973 0.507889 0.609077
v -0.517978 0.507889 0.517978
v -0.609077 0.507889 0.406973
v -0.676771 0.507889 0.280328
v -0.718456 0.507889 0.142910
v -0.732531 0.507889 -0.000000
v -0.718456 0.507889 -0.142910
v -0.676771 0.507889 -0.280328
v -0.609077 0.507889 -0.406973
v -0.517978 0.507889 -0.517978
v -0.406973 0.507889 -0.609077
v -0.280328 0.507889 -0.676771
v -0.142910 0.507889 -0.718456
vn -0.0980 -0.0000 0.9952
vn -0.2903 -0.0000 0.9569
vn -0.4714 -0.0000 0.8819
vn -0.6344 -0.0000 0.7730
vn -0.7730 -0.0000 0.6344
vn -0.8819 -0.0000 0.4714
vn -0.9569 -0.0000 0.2903
vn -0.9952 -0.0000 0.0980
vn -0.9952 -0.0000 -0.0980
vn -0.9569 -0.0000 -0.2903
vn -0.8819 -0.0000 -0.4714
vn -0.7730 -0.0000 -0.6344
vn -0.6344 -0.0000 -0.7730
vn -0.4714 -0.0000 -0.8819
vn -0.2903 -0.0000 -0.9569
vn -0.0980 -0.0000 -0.9952
vn 0.0980 -0.0000 -0.9952
vn 0.2903 -0.0000 -0.9569
vn 0.4714 -0.0000 -0.8819
vn 0.6344 -0.0000 -0.7730
vn 0.7730 -0.0000 -0.6344
vn 0.8819 -0.0000 -0.4714
vn 0.9569 -0.0000 -0.2903
vn 0.9952 -0.0000 -0.0980
vn 0.9952 -0.0000 0.0980
vn 0.9569 -0.0000 0.2903
vn 0.8819 -0.0000 0.4714
vn 0.7730 -0.0000 0.6344
vn 0.6344 -0.0000 0.7730
vn 0.4714 -0.0000 0.8819
vn 0.2903 -0.0000 0.9569
vn 0.0980 -0.0000 0.9952
vn -0.0465 -0.8804 0.4720
vn -0.4538 -0.8804 -0.1377
vn 0.2236 -0.8804 -0.4182
vn 0.3666 -0.8804 0.3009
vn -0.4182 -0.8804 0.2236
vn -0.1377 -0.8804 -0.4538
vn 0.4720 -0.8804 -0.0465
vn -0.1377 -0.8804 0.4538
vn -0.4182 -0.8804 -0.2236
vn 0.3009 -0.8804 -0.3666
vn 0.3009 -0.8804 0.3666
vn -0.4538 -0.8804 0.1377
vn -0.0465 -0.8804 -0.4720
vn 0.4720 -0.8804 0.0465
vn -0.2236 -0.8804 0.4182
vn -0.3666 -0.8804 -0.3009
vn 0.3666 -0.8804 -0.3009
vn 0.2236 -0.8804 0.4182
vn -0.4720 -0.8804 0.0465
vn 0.0465 -0.8804 -0.4720
vn 0.4538 -0.8804 0.1377
vn -0.3009 -0.8804 0.3666
vn -0.3009 -0.8804 -0.3666
vn 0.4182 -0.8804 -0.2236
vn 0.1377 -0.8804 0.4538
vn -0.4720 -0.8804 -0.0465
vn 0.1377 -0.8804 -0.4538
vn 0.4182 -0.8804 0.2236
vn -0.3666 -0.8804 0.3009
vn -0.2236 -0.8804 -0.4182
vn 0.4538 -0.8804 -0.1377
vn 0.0465 -0.8804 0.4720
vn 0.0465 0.8804 -0.4720
vn 0.4538 0.8804 0.1377
vn -0.2236 0.8804 0.4182
vn -0.3666 0.8804 -0.3009
vn 0.4182 0.8804 -0.2236
vn 0.1377 0.8804 0.4538
vn -0.4720 0.8804 0.0465
vn 0.1377 0.8804 -0.4538
vn 0.4182 0.8804 0.2236
vn -0.3009 0.8804 0.3666
vn -0.3009 0.8804 -0.3666
vn 0.4538 0.8804 -0.1377
vn 0.0465 0.8804 0.4720
vn -0.4720 0.8804 -0.0465
vn 0.2236 0.8804 -0.4182
vn 0.3666 0.8804 0.3009
vn -0.3666 0.8804 0.3009
vn -0.2236 0.8804 -0.4182
vn 0.4720 0.8804 -0.0465
vn -0.0465 0.8804 0.4720
vn -0.4538 0.8804 -0.1377
vn 0.3009 0.8804 -0.3666
vn 0.3009 0.8804 0.3666
vn -0.4182 0.8804 0.2236
vn -0.1377 0.8804 -0.4538
vn 0.4720 0.8804 0.0465
vn -0.1377 0.8804 0.4538
vn -0.4182 0.8804 -0.2236
vn 0.3666 0.8804 -0.3009
vn 0.2236 0.8804 0.4182
vn -0.4538 0.8804 0.1377
vn -0.0465 0.8804 -0.4720
vn -0.1989 0.9742 -0.1063
vn -0.4578 -0.8782 -0.1389
vn -0.1744 0.9742 -0.1431
vn 0.2255 -0.8782 -0.4219
vn -0.1431 0.9742 -0.1744
vn 0.3698 -0.8782 0.3035
vn -0.1389 -0.8782 0.4578
vn -0.1063 0.9742 -0.1989
vn -0.4219 -0.8782 -0.2255
vn -0.0655 0.9742 -0.2159
vn 0.3035 -0.8782 -0.3698
vn -0.0221 0.9742 -0.2245
vn 0.3035 -0.8782 0.3698
vn -0.2255 -0.8782 0.4219
vn 0.0221 0.9742 -0.2245
vn -0.3698 -0.8782 -0.3035
vn 0.0655 0.9742 -0.2159
vn 0.3698 -0.8782 -0.3035
vn 0.1063 0.9742 -0.1989
vn 0.2255 -0.8782 0.4219
vn -0.3035 -0.8782 0.3698
vn 0.1431 0.9742 -0.1744
vn -0.3035 -0.8782 -0.3698
vn 0.1744 0.9742 -0.1431
vn 0.4219 -0.8782 -0.2255
vn 0.1989 0.9742 -0.1063
vn 0.1389 -0.8782 0.4578
vn -0.3698 -0.8782 0.3035
vn 0.2159 0.9742 -0.0655
vn -0.2255 -0.8782 -0.4219
vn 0.2245 0.9742 -0.0221
vn 0.4578 -0.8782 -0.1389
vn 0.2245 0.9742 0.0221
vn 0.0469 -0.8782 0.4761
vn -0.4219 -0.8782 0.2255
vn 0.2159 0.9742 0.0655
vn -0.1389 -0.8782 -0.4578
vn 0.1989 0.9742 0.1063
vn -0.0221 0.9742 0.2245
vn 0.4761 -0.8782 -0.0469
vn 0.1744 0.9742 0.1431
vn -0.0655 0.9742 0.2159
vn -0.4578 -0.8782 0.1389
vn 0.1431 0.9742 0.1744
vn -0.1063 0.9742 0.1989
vn -0.0469 -0.8782 -0.4761
vn 0.1063 0.9742 0.1989
vn -0.1431 0.9742 0.1744
vn 0.4761 -0.8782 0.0469
vn 0.0655 0.9742 0.2159
vn -0.1744 0.9742 0.1431
vn -0.4761 -0.8782 0.0469
vn 0.0221 0.9742 0.2245
vn -0.1989 0.9742 0.1063
vn 0.0469 -0.8782 -0.4761
vn -0.2159 0.9742 0.0655
vn 0.4578 -0.8782 0.1389
vn -0.2245 0.9742 0.0221
vn -0.4761 -0.8782 -0.0469
vn -0.2245 0.9742 -0.0221
vn 0.1389 -0.8782 -0.4578
vn -0.0469 -0.8782 0.4761
vn -0.2159 0.9742 -0.0655
vn 0.4219 -0.8782 0.2255
vt 1.000000 0.000000
vt 0.968750 0.000000
vt 0.968750 1.000000
vt 1.000000 1.000000
vt 0.937500 0.000000
vt 0.937500 1.000000
vt 0.906250 0.000000
vt 0.906250 1.000000
vt 0.875000 0.000000
vt 0.875000 1.000000
vt 0.843750 0.000000
vt 0.843750 1.000000
vt 0.812500 0.000000
vt 0.812500 1.000000
vt 0.781250 0.000000
vt 0.781250 1.000000
vt 0.750000 0.000000
vt 0.750000 1.000000
vt 0.718750 0.000000
vt 0.718750 1.000000
vt 0.687500 0.000000
vt 0.687500 1.000000
vt 0.656250 0.000000
vt 0.656250 1.000000
vt 0.625000 0.000000
vt 0.625000 1.000000
vt 0.593750 0.000000
vt 0.593750 1.000000
vt 0.562500 0.000000
vt 0.562500 1.000000
vt 0.531250 0.000000
vt 0.531250 1.000000
vt 0.500000 0.000000
vt 0.500000 1.000000
vt 0.468750 0.000000
vt 0.468750 1.000000
vt 0.437500 0.000000
vt 0.437500 1.000000
vt 0.406250 0.000000
vt 0.406250 1.000000
vt 0.375000 0.000000
vt 0.375000 1.000000
vt 0.343750 0.000000
vt 0.343750 1.000000
vt 0.312500 0.000000
vt 0.312500 1.000000
vt 0.281250 0.000000
vt 0.281250 1.000000
vt 0.250000 0.000000
vt 0.250000 1.000000
vt 0.218750 0.000000
vt 0.218750 1.000000
vt 0.187500 0.000000
vt 0.187500 1.000000
vt 0.156250 0.000000
vt 0.156250 1.000000
vt 0.125000 0.000000
vt 0.125000 1.000000
vt 0.093750 0.000000
vt 0.093750 1.000000
vt 0.062500 0.000000
vt 0.062500 1.000000
vt 0.031250 0.000000
vt 0.031250 1.000000
vt 0.000000 0.000000
vt 0.000000 1.000000
s 0
f 1/1/1 3/2/1 4/3/1 2/4/1
f 3/2/2 5/5/2 6/6/2 4/3/2
f 5/5/3 7/7/3 8/8/3 6/6/3
f 7/7/4 9/9/4 10/10/4 8/8/4
f 9/9/5 11/11/5 12/12/5 10/10/5
f 11/11/6 13/13/6 14/14/6 12/12/6
f 13/13/7 15/15/7 16/16/7 14/14/7
f 15/15/8 17/17/8 18/18/8 16/16/8
f 17/17/9 19/19/9 20/20/9 18/18/9
f 19/19/10 21/21/10 22/22/10 20/20/10
f 21/21/11 23/23/11 24/24/11 22/22/11
f 23/23/12 25/25/12 26/26/12 24/24/12
f 25/25/13 27/27/13 28/28/13 26/26/13
f 27/27/14 29/29/14 30/30/14 28/28/14
f 29/29/15 31/31/15 32/32/15 30/30/15
f 31/31/16 33/33/16 34/34/16 32/32/16
f 33/33/17 35/35/17 36/36/17 34/34/17
f 35/35/18 37/37/18 38/38/18 36/36/18
f 37/37/19 39/39/19 40/40/19 38/38/19
f 39/39/20 41/41/20 42/42/20 40/40/20
f 41/41/21 43/43/21 44/44/21 42/42/21
f 43/43/22 45/45/22 46/46/22 44/44/22
f 45/45/23 47/47/23 48/48/23 46/46/23
f 47/47/24 49/49/24 50/50/24 48/48/24
f 49/49/25 51/51/25 52/52/25 50/50/25
f 51/51/26 53/53/26 54/54/26 52/52/26
f 53/53/27 55/55/27 56/56/27 54/54/27
f 55/55/28 57/57/28 58/58/28 56/56/28
f 57/57/29 59/59/29 60/60/29 58/58/29
f 59/59/30 61/61/30 62/62/30 60/60/30
f 61/61/31 63/63/31 64/64/31 62/62/31
f 63/63/32 1/65/32 2/66/32 64/64/32
f 4/3/33 66/3/33 65/4/33 2/4/33
f 22/22/34 75/22/34 74/20/34 20/20/34
f 40/40/35 84/40/35 83/38/35 38/38/35
f 58/58/36 93/58/36 92/56/36 56/56/36
f 14/14/37 71/14/37 70/12/37 12/12/37
f 32/32/38 80/32/38 79/30/38 30/30/38
f 50/50/39 89/50/39 88/48/39 48/48/39
f 6/6/40 67/6/40 66/3/40 4/3/40
f 24/24/41 76/24/41 75/22/41 22/22/41
f 42/42/42 85/42/42 84/40/42 40/40/42
f 60/60/43 94/60/43 93/58/43 58/58/43
f 16/16/44 72/16/44 71/14/44 14/14/44
f 34/34/45 81/34/45 80/32/45 32/32/45
f 52/52/46 90/52/46 89/50/46 50/50/46
f 8/8/47 68/8/47 67/6/47 6/6/47
f 26/26/48 77/26/48 76/24/48 24/24/48
f 44/44/49 86/44/49 85/42/49 42/42/49
f 62/62/50 95/62/50 94/60/50 60/60/50
f 18/18/51 73/18/51 72/16/51 16/16/51
f 36/36/52 82/36/52 81/34/52 34/34/52
f 54/54/53 91/54/53 90/52/53 52/52/53
f 10/10/54 69/10/54 68/8/54 8/8/54
f 28/28/55 78/28/55 77/26/55 26/26/55
f 46/46/56 87/46/56 86/44/56 44/44/56
f 64/64/57 96/64/57 95/62/57 62/62/57
f 20/20/58 74/20/58 73/18/58 18/18/58
f 38/38/59 83/38/59 82/36/59 36/36/59
f 56/56/60 92/56/60 91/54/60 54/54/60
f 12/12/61 70/12/61 69/10/61 10/10/61
f 30/30/62 79/30/62 78/28/62 28/28/62
f 48/48/63 88/48/63 87/46/63 46/46/63
f 2/66/64 65/66/64 96/64/64 64/64/64
f 98/1/17 99/4/17 100/3/17 97/2/17
f 97/2/18 100/3/18 102/6/18 101/5/18
f 101/5/19 102/6/19 104/8/19 103/7/19
f 103/7/20 104/8/20 106/10/20 105/9/20
f 105/9/21 106/10/21 108/12/21 107/11/21
f 107/11/22 108/12/22 110/14/22 109/13/22
f 109/13/23 110/14/23 112/16/23 111/15/23
f 111/15/24 112/16/24 114/18/24 113/17/24
f 113/17/25 114/18/25 116/20/25 115/19/25
f 115/19/26 116/20/26 118/22/26 117/21/26
f 117/21/27 118/22/27 120/24/27 119/23/27
f 119/23/28 120/24/28 122/26/28 121/25/28
f 121/25/29 122/26/29 124/28/29 123/27/29
f 123/27/30 124/28/30 126/30/30 125/29/30
f 125/29/31 126/30/31 128/32/31 127/31/31
f 127/31/32 128/32/32 130/34/32 129/33/32
f 129/33/1 130/34/1 132/36/1 131/35/1
f 131/35/2 132/36/2 134/38/2 133/37/2
f 133/37/3 134/38/3 136/40/3 135/39/3
f 135/39/4 136/40/4 138/42/4 137/41/4
f 137/41/5 138/42/5 140/44/5 139/43/5
f 139/43/6 140/44/6 142/46/6 141/45/6
f 141/45/7 142/46/7 144/48/7 143/47/7
f 143/47/8 144/48/8 146/50/8 145/49/8
f 145/49/9 146/50/9 148/52/9 147/51/9
f 147/51/10 148/52/10 150/54/10 149/53/10
f 149/53/11 150/54/11 152/56/11 151/55/11
f 151/55/12 152/56/12 154/58/12 153/57/12
f 153/57/13 154/58/13 156/60/13 155/59/13
f 155/59/14 156/60/14 158/62/14 157/61/14
f 157/61/15 158/62/15 160/64/15 159/63/15
f 159/63/16 160/64/16 99/66/16 98/65/16
f 100/3/65 99/4/65 161/4/65 162/3/65
f 118/22/66 116/20/66 170/20/66 171/22/66
f 136/40/67 134/38/67 179/38/67 180/40/67
f 154/58/68 152/56/68 188/56/68 189/58/68
f 110/14/69 108/12/69 166/12/69 167/14/69
f 128/32/70 126/30/70 175/30/70 176/32/70
f 146/50/71 144/48/71 184/48/71 185/50/71
f 102/6/72 100/3/72 162/3/72 163/6/72
f 120/24/73 118/22/73 171/22/73 172/24/73
f 138/42/74 136/40/74 180/40/74 181/42/74
f 156/60/75 154/58/75 189/58/75 190/60/75
f 112/16/76 110/14/76 167/14/76 168/16/76
f 130/34/77 128/32/77 176/32/77 177/34/77
f 148/52/78 146/50/78 185/50/78 186/52/78
f 104/8/79 102/6/79 163/6/79 164/8/79
f 122/26/80 120/24/80 172/24/80 173/26/80
f 140/44/81 138/42/81 181/42/81 182/44/81
f 158/62/82 156/60/82 190/60/82 191/62/82
f 114/18/83 112/16/83 168/16/83 169/18/83
f 132/36/84 130/34/84 177/34/84 178/36/84
f 150/54/85 148/52/85 186/52/85 187/54/85
f 106/10/86 104/8/86 164/8/86 165/10/86
f 124/28/87 122/26/87 173/26/87 174/28/87
f 142/46/88 140/44/88 182/44/88 183/46/88
f 160/64/89 158/62/89 191/62/89 192/64/89
f 116/20/90 114/18/90 169/18/90 170/20/90
f 134/38/91 132/36/91 178/36/91 179/38/91
f 152/56/92 150/54/92 187/54/92 188/56/92
f 108/12/93 106/10/93 165/10/93 166/12/93
f 126/30/94 124/28/94 174/28/94 175/30/94
f 144/48/95 142/46/95 183/46/95 184/48/95
f 99/66/96 160/64/96 192/64/96 161/66/96
f 75/22/97 76/24/97 172/24/97 171/22/97
f 21/21/98 19/19/98 115/19/98 117/21/98
f 76/24/99 77/26/99 173/26/99 172/24/99
f 39/39/100 37/37/100 133/37/100 135/39/100
f 77/26/101 78/28/101 174/28/101 173/26/101
f 57/57/102 55/55/102 151/55/102 153/57/102
f 5/5/103 3/2/103 97/2/103 101/5/103
f 78/28/104 79/30/104 175/30/104 174/28/104
f 23/23/105 21/21/105 117/21/105 119/23/105
f 79/30/106 80/32/106 176/32/106 175/30/106
f 41/41/107 39/39/107 135/39/107 137/41/107
f 80/32/108 81/34/108 177/34/108 176/32/108
f 59/59/109 57/57/109 153/57/109 155/59/109
f 7/7/110 5/5/110 101/5/110 103/7/110
f 81/34/111 82/36/111 178/36/111 177/34/111
f 25/25/112 23/23/112 119/23/112 121/25/112
f 82/36/113 83/38/113 179/38/113 178/36/113
f 43/43/114 41/41/114 137/41/114 139/43/114
f 83/38/115 84/40/115 180/40/115 179/38/115
f 61/61/116 59/59/116 155/59/116 157/61/116
f 9/9/117 7/7/117 103/7/117 105/9/117
f 84/40/118 85/42/118 181/42/118 180/40/118
f 27/27/119 25/25/119 121/25/119 123/27/119
f 85/42/120 86/44/120 182/44/120 181/42/120
f 45/45/121 43/43/121 139/43/121 141/45/121
f 86/44/122 87/46/122 183/46/122 182/44/122
f 63/63/123 61/61/123 157/61/123 159/63/123
f 11/11/124 9/9/124 105/9/124 107/11/124
f 87/46/125 88/48/125 184/48/125 183/46/125
f 29/29/126 27/27/126 123/27/126 125/29/126
f 88/48/127 89/50/127 185/50/127 184/48/127
f 47/47/128 45/45/128 141/45/128 143/47/128
f 89/50/129 90/52/129 186/52/129 185/50/129
f 1/65/130 63/63/130 159/63/130 98/65/130
f 13/13/131 11/11/131 107/11/131 109/13/131
f 90/52/132 91/54/132 187/54/132 186/52/132
f 31/31/133 29/29/133 125/29/133 127/31/133
f 91/54/134 92/56/134 188/56/134 187/54/134
f 65/4/135 66/3/135 162/3/135 161/4/135
f 49/49/136 47/47/136 143/47/136 145/49/136
f 92/56/137 93/58/137 189/58/137 188/56/137
f 66/3/138 67/6/138 163/6/138 162/3/138
f 15/15/139 13/13/139 109/13/139 111/15/139
f 93/58/140 94/60/140 190/60/140 189/58/140
f 67/6/141 68/8/141 164/8/141 163/6/141
f 33/33/142 31/31/142 127/31/142 129/33/142
f 94/60/143 95/62/143 191/62/143 190/60/143
f 68/8/144 69/10/144 165/10/144 164/8/144
f 51/51/145 49/49/145 145/49/145 147/51/145
f 95/62/146 96/64/146 192/64/146 191/62/146
f 69/10/147 70/12/147 166/12/147 165/10/147
f 17/17/148 15/15/148 111/15/148 113/17/148
f 96/64/149 65/66/149 161/66/149 192/64/149
f 70/12/150 71/14/150 167/14/150 166/12/150
f 35/35/151 33/33/151 129/33/151 131/35/151
f 71/14/152 72/16/152 168/16/152 167/14/152
f 53/53/153 51/51/153 147/51/153 149/53/153
f 72/16/154 73/18/154 169/18/154 168/16/154
f 19/19/155 17/17/155 113/17/155 115/19/155
f 73/18/156 74/20/156 170/20/156 169/18/156
f 37/37/157 35/35/157 131/35/157 133/37/157
f 3/2/158 1/1/158 98/1/158 97/2/158
f 74/20/159 75/22/159 171/22/159 170/20/159
f 55/55/160 53/53/160 149/53/160 151/55/160
